<?xml version="1.0" standalone="no"?>
<!DOCTYPE svg PUBLIC "-//W3C//DTD SVG 20010904//EN"
 "http://www.w3.org/TR/2001/REC-SVG-20010904/DTD/svg10.dtd">
<svg version="1.0" xmlns="http://www.w3.org/2000/svg"
 width="900.000000pt" height="660.000000pt" viewBox="0 0 900.000000 660.000000"
 preserveAspectRatio="xMidYMid meet">

<g transform="translate(0.000000,660.000000) scale(0.100000,-0.100000)"
fill="#000000" stroke="none">
<path d="M1487 6449 c-101 -24 -188 -123 -203 -233 -14 -97 46 -211 138 -262
l53 -29 349 -5 350 -5 103 -345 c56 -190 111 -374 122 -410 11 -36 77 -256
146 -490 70 -234 183 -614 252 -845 191 -642 349 -1174 366 -1234 16 -54 16
-54 -13 -112 -90 -178 -133 -375 -111 -512 47 -286 256 -440 641 -472 50 -4
214 5 495 29 548 46 887 71 1285 96 596 36 752 42 1158 45 l403 4 44 26 c135
78 135 277 1 360 l-50 30 -450 0 c-248 0 -552 -6 -676 -13 -677 -38 -1349 -86
-1925 -138 -277 -25 -428 -8 -484 54 -21 23 -23 32 -18 88 3 35 12 78 20 96
l14 33 274 34 c151 18 326 39 389 47 266 33 2530 306 2690 325 96 11 198 27
225 34 60 17 116 61 150 119 28 47 22 22 170 791 58 303 131 678 161 835 30
157 77 402 105 545 27 143 52 272 55 287 9 45 -15 135 -49 184 -21 30 -53 58
-87 78 l-55 31 -2335 3 -2336 2 -33 113 c-159 536 -202 671 -221 702 -13 21
-41 50 -63 66 -79 57 -99 59 -576 58 -240 -1 -453 -5 -474 -10z m2853 -1899
l0 -430 -535 0 -534 0 -22 73 c-11 39 -68 229 -125 421 -57 192 -104 353 -104
358 0 4 297 8 660 8 l660 0 0 -430z m1363 143 c-1 -159 -3 -352 -3 -430 l0
-143 -550 0 -550 0 0 430 0 430 553 0 552 0 -2 -287z m1415 270 c-3 -10 -40
-204 -84 -430 l-79 -413 -497 0 -498 0 0 430 0 430 581 0 c549 0 581 -1 577
-17z m-2778 -1608 c0 -278 -2 -505 -4 -505 -3 0 -152 -18 -332 -40 -179 -23
-328 -39 -330 -38 -3 3 -156 516 -270 903 -24 83 -47 158 -50 168 -5 16 23 17
490 17 l496 0 0 -505z m1360 395 c1 -60 1 -207 1 -325 0 -118 0 -259 -1 -313
l0 -98 -272 -32 c-150 -18 -385 -46 -523 -62 -137 -17 -262 -32 -277 -35 l-28
-5 0 490 0 490 550 0 550 0 0 -110z m1200 95 c0 -28 -131 -690 -138 -696 -6
-6 -753 -99 -789 -99 -10 0 -13 88 -13 405 l0 405 470 0 c408 0 470 -2 470
-15z"/>
<path d="M3385 1278 c-237 -32 -417 -203 -462 -441 -60 -320 197 -626 526
-627 148 0 277 54 381 159 135 137 188 317 145 500 -63 264 -323 445 -590 409z"/>
<path d="M6371 1264 c-178 -48 -320 -189 -375 -374 -22 -72 -22 -217 0 -290
97 -329 459 -484 768 -328 126 64 237 208 271 350 64 272 -97 556 -361 638
-79 24 -221 26 -303 4z"/>
</g>
</svg>
