<?xml version="1.0" standalone="no"?>
<!DOCTYPE svg PUBLIC "-//W3C//DTD SVG 20010904//EN"
 "http://www.w3.org/TR/2001/REC-SVG-20010904/DTD/svg10.dtd">
<svg version="1.0" xmlns="http://www.w3.org/2000/svg"
 width="1079.000000pt" height="356.000000pt" viewBox="0 0 1079.000000 356.000000"
 preserveAspectRatio="xMidYMid meet">

<g transform="translate(0.000000,356.000000) scale(0.100000,-0.100000)"
fill="#000000" stroke="none">
<path d="M7436 3089 c-7 -30 -189 -995 -287 -1526 -40 -216 -70 -395 -67 -399
4 -3 91 3 195 15 384 43 824 71 1109 71 118 0 122 1 127 22 28 118 97 491 92
496 -4 4 -191 7 -417 7 l-409 0 6 35 c4 19 11 56 16 81 l10 47 157 7 c86 4
244 5 350 1 105 -3 192 -5 192 -3 0 1 20 99 44 217 25 118 43 216 41 219 -8 8
-298 20 -494 20 l-203 1 5 23 c3 12 11 50 18 85 l12 62 106 0 c129 0 489 -17
626 -30 55 -5 101 -8 102 -6 8 8 105 498 99 503 -7 7 -255 36 -456 53 -74 6
-323 14 -552 17 l-417 6 -5 -24z"/>
<path d="M6620 3083 c-294 -29 -528 -143 -678 -329 -124 -154 -180 -366 -141
-534 43 -188 218 -355 409 -391 183 -34 226 -52 245 -103 7 -22 5 -35 -10 -64
-28 -50 -73 -74 -154 -80 -68 -4 -92 0 -401 73 -52 13 -99 20 -103 16 -6 -6
-222 -567 -241 -629 -6 -18 3 -22 111 -43 149 -29 351 -32 493 -5 121 22 328
93 446 152 295 148 500 405 544 686 23 140 -17 266 -116 362 -79 79 -153 110
-371 158 -103 23 -196 48 -206 57 -54 46 -37 88 51 129 51 24 68 27 157 26
103 -1 234 -21 342 -54 l63 -18 9 37 c24 89 111 485 111 504 0 9 -73 27 -170
43 -76 13 -297 17 -390 7z"/>
<path d="M556 2808 c13 -134 64 -688 114 -1233 52 -563 96 -993 102 -996 27
-17 582 -96 609 -87 6 2 78 165 159 362 l148 359 6 -59 c3 -33 18 -201 32
-374 14 -173 27 -317 29 -319 3 -2 138 -6 302 -8 241 -4 301 -2 314 8 9 8 58
115 109 239 136 332 477 1146 676 1617 96 226 174 417 174 423 0 7 -10 9 -27
6 -16 -3 -168 -7 -340 -8 l-312 -3 -218 -540 c-186 -461 -218 -534 -220 -500
-2 22 -10 267 -18 543 -8 277 -17 507 -20 511 -2 5 -50 11 -107 15 -56 3 -163
13 -237 22 -105 12 -136 13 -141 3 -5 -6 -90 -245 -191 -530 -101 -285 -185
-516 -187 -514 -2 2 -24 257 -48 566 -24 309 -45 563 -46 565 -2 1 -75 19
-163 39 -88 19 -240 58 -338 85 -98 28 -179 50 -181 50 -1 0 8 -109 20 -242z"/>
<path d="M8976 2996 c-3 -13 -42 -199 -86 -413 -182 -876 -271 -1325 -265
-1331 3 -4 81 -10 173 -14 92 -4 214 -12 271 -18 58 -5 114 -10 126 -10 19 0
24 17 65 210 24 116 49 218 56 228 10 14 15 15 37 3 47 -25 173 -212 288 -429
29 -53 51 -84 64 -87 169 -34 415 -92 508 -118 64 -19 117 -32 117 -29 0 2
-57 124 -126 271 -206 433 -196 411 -176 418 42 15 158 98 203 145 28 29 67
86 87 127 36 74 37 77 37 195 0 108 -3 129 -28 198 -69 186 -260 390 -448 478
-99 46 -405 121 -712 175 -177 31 -183 31 -191 1z m698 -588 c92 -47 132 -150
86 -225 -23 -38 -50 -57 -108 -74 -58 -17 -245 15 -238 40 5 18 66 300 66 305
0 6 172 -34 194 -46z"/>
<path d="M5323 2931 c-221 -26 -404 -49 -406 -52 -6 -6 -98 -551 -94 -555 2
-2 30 1 63 6 32 6 64 10 70 10 7 0 -19 -179 -72 -492 -46 -271 -86 -503 -89
-515 -4 -18 -16 -23 -78 -33 l-73 -12 -46 -281 c-26 -155 -45 -283 -43 -286 6
-6 879 159 886 167 6 7 100 544 96 548 -1 1 -32 -3 -70 -9 -37 -6 -69 -8 -71
-6 -2 2 36 228 83 502 l86 497 35 5 c19 3 53 9 75 13 l40 7 41 235 c23 129 44
250 47 268 6 32 6 32 -36 31 -23 -1 -223 -22 -444 -48z"/>
<path d="M4740 2864 c-58 -14 -899 -89 -1241 -110 l-105 -6 -82 -502 c-201
-1231 -282 -1739 -277 -1744 18 -18 1290 160 1405 197 24 7 26 16 76 317 29
170 50 310 49 312 -2 2 -126 -15 -276 -38 -328 -49 -548 -78 -552 -73 -7 6 27
188 36 194 5 4 39 9 76 13 79 8 567 74 596 81 18 4 25 30 64 265 23 144 41
263 39 265 -1 1 -121 -12 -266 -30 -364 -46 -422 -51 -422 -34 0 8 5 49 12 93
10 63 16 80 32 86 12 5 93 16 181 25 259 27 629 75 636 83 3 4 27 135 53 292
26 157 50 293 53 303 4 14 -2 17 -34 16 -21 -1 -45 -3 -53 -5z"/>
</g>
</svg>
